# xmcd CD database file generated by OrangeCD 6.2
#
# Track frame offsets:
#	182
#	12822
#	24577
#	36642
#	47610
#	59002
#	70315
#	83605
#	95390
#	109697
#	120645
#	133920
#
# Disc length: 1951 seconds
#
# Revision: 1
# Processed by: cddbd v1.5.2PL0 Copyright (c) Steve Scherf et al.
# Submitted via: OrangeCD 6.2
#
DISCID=a2079d0c
DTITLE=Al Martino - Spanish Eyes
DYEAR=1988
DGENRE=Country
TTITLE0=Spanish Eyes
TTITLE1=My Foolish Heart
TTITLE2=By The River of the Roses
TTITLE3=Make The World Go Away
TTITLE4=Hello Memory
TTITLE5=Till Then, My Love
TTITLE6=White Rosr of Athens
TTITLE7=Forgive Me
TTITLE8=The End of the World
TTITLE9=One Has My Name
TTITLE10=I'll Hold You in My Heart
TTITLE11=Think I'll Go Somewhere and Cry Myself To Sleep
EXTD=
EXTT0=
EXTT1=
EXTT2=
EXTT3=
EXTT4=
EXTT5=
EXTT6=
EXTT7=
EXTT8=
EXTT9=
EXTT10=
EXTT11=
PLAYORDER=
